<svg width="24" height="25" viewBox="0 0 24 25" fill="none" xmlns="http://www.w3.org/2000/svg">
<g id="instagram">
<path id="Vector" fill-rule="evenodd" clip-rule="evenodd" d="M12.0572 2.62354C14.2479 2.62353 15.9686 2.62352 17.312 2.80413C18.6886 2.98922 19.7809 3.37625 20.6391 4.23445C21.4973 5.09265 21.8843 6.18491 22.0694 7.56156C22.25 8.90498 22.25 10.6256 22.25 12.8163V12.9307C22.25 15.1214 22.25 16.8421 22.0694 18.1855C21.8843 19.5621 21.4973 20.6544 20.6391 21.5126C19.7809 22.3708 18.6886 22.7578 17.312 22.9429C15.9686 23.1235 14.2479 23.1235 12.0572 23.1235H11.9428C9.7521 23.1235 8.03144 23.1235 6.68802 22.9429C5.31137 22.7578 4.21911 22.3708 3.36091 21.5126C2.50272 20.6544 2.11568 19.5621 1.93059 18.1855C1.74998 16.8421 1.74999 15.1214 1.75 12.9307V12.8163C1.74999 10.6257 1.74998 8.90498 1.93059 7.56156C2.11568 6.18491 2.50272 5.09265 3.36091 4.23445C4.21911 3.37625 5.31137 2.98922 6.68802 2.80413C8.03143 2.62352 9.7521 2.62353 11.9428 2.62354H12.0572ZM16.5 12.8735C16.5 15.3588 14.4853 17.3735 12 17.3735C9.51472 17.3735 7.5 15.3588 7.5 12.8735C7.5 10.3883 9.51472 8.37354 12 8.37354C14.4853 8.37354 16.5 10.3883 16.5 12.8735ZM17.5123 8.37354C18.0621 8.37354 18.5078 7.92583 18.5078 7.37354C18.5078 6.82126 18.0621 6.37354 17.5123 6.37354H17.5033C16.9535 6.37354 16.5078 6.82126 16.5078 7.37354C16.5078 7.92582 16.9535 8.37354 17.5033 8.37354H17.5123Z" fill="#263653"/>
</g>
</svg>
