<svg width="260" height="151" viewBox="0 0 260 151" fill="none" xmlns="http://www.w3.org/2000/svg">
<path d="M102.089 96.0091C101.511 95.1827 101.335 95.1827 101.108 95.1827C100.781 95.1827 100.505 95.4331 100.505 95.7336C100.505 96.0592 100.756 96.2345 101.108 96.2345C102.34 96.2345 103.246 97.186 103.246 98.2378C103.271 99.4648 102.29 100.391 101.033 100.391C100.505 100.391 99.7253 100.341 98.8201 98.8889L100.077 98.0875C100.555 98.8137 100.832 98.8638 101.033 98.8638C101.309 98.8638 101.636 98.6635 101.611 98.363C101.611 98.0875 101.335 97.762 101.033 97.762C99.5996 97.762 98.8452 96.8856 98.8452 95.7086C98.8452 94.5567 99.8259 93.5801 101.033 93.5801C101.661 93.5801 102.416 93.6302 103.321 95.1327L102.089 96.0091Z" fill="#E24514"/>
<path d="M119.389 100.291V93.655C119.389 93.655 122.808 93.655 123.638 93.655V95.2827C122.934 95.2827 121.727 95.2827 121.023 95.2827V96.1842C121.878 96.1842 123.01 96.1842 123.638 96.1842V97.7869C122.934 97.7869 121.878 97.7869 121.023 97.7869V98.6884C121.828 98.6884 123.01 98.6884 123.638 98.6884V100.316C122.783 100.291 119.389 100.291 119.389 100.291Z" fill="#E24514"/>
<path d="M142.975 96.0091C142.396 95.1827 142.22 95.1827 141.994 95.1827C141.667 95.1827 141.391 95.4331 141.391 95.7336C141.391 96.0592 141.642 96.2345 141.994 96.2345C143.226 96.2345 144.131 97.186 144.157 98.2378C144.182 99.4648 143.201 100.391 141.944 100.391C141.416 100.391 140.636 100.341 139.731 98.8889L140.988 98.0875C141.466 98.8137 141.718 98.8638 141.944 98.8638C142.22 98.8638 142.547 98.6635 142.522 98.363C142.522 98.0875 142.246 97.762 141.944 97.762C140.511 97.762 139.756 96.8856 139.756 95.7086C139.756 94.5567 140.737 93.5801 141.944 93.5801C142.572 93.5801 143.327 93.6302 144.232 95.1327L142.975 96.0091Z" fill="#E24514"/>
<path d="M163.443 96.0091C162.865 95.1827 162.689 95.1827 162.462 95.1827C162.135 95.1827 161.859 95.4331 161.859 95.7336C161.859 96.0592 162.11 96.2345 162.462 96.2345C163.694 96.2345 164.6 97.186 164.625 98.2378C164.65 99.4648 163.669 100.391 162.412 100.391C161.884 100.391 161.104 100.341 160.199 98.8889L161.456 98.0875C161.934 98.8137 162.186 98.8638 162.412 98.8638C162.689 98.8638 163.015 98.6635 162.99 98.363C162.99 98.0875 162.714 97.762 162.412 97.762C160.979 97.762 160.224 96.8856 160.224 95.7086C160.224 94.5567 161.205 93.5801 162.412 93.5801C163.041 93.5801 163.795 93.6302 164.7 95.1327L163.443 96.0091Z" fill="#E24514"/>
<path d="M182.075 100.316C182.075 99.5148 182.075 94.5065 182.075 93.6802H183.71C183.71 94.5065 183.71 99.5148 183.71 100.316H182.075Z" fill="#E24514"/>
<path d="M203.424 100.492C201.462 100.492 199.853 98.8889 199.853 96.9857C199.853 95.1076 201.487 93.53 203.424 93.53C205.36 93.53 206.944 95.1327 206.944 96.9857C206.919 98.8889 205.36 100.492 203.424 100.492ZM203.424 95.2078C202.367 95.2078 201.563 96.0342 201.563 97.0108C201.563 98.0125 202.367 98.8138 203.424 98.8138C204.429 98.8138 205.209 98.0125 205.209 97.0108C205.209 96.0342 204.404 95.2078 203.424 95.2078Z" fill="#E24514"/>
<path d="M222.182 96.6601C222.182 96.7853 222.182 96.9606 222.182 97.1108C222.182 98.2377 222.182 99.8153 222.182 100.316H220.547C220.547 99.5649 220.547 93.3296 220.547 93.3296L225.425 97.3112C225.425 97.211 225.4 97.0858 225.4 96.9856C225.4 95.7586 225.4 94.181 225.4 93.7052H227.035C227.035 94.4565 227.035 100.692 227.035 100.692L222.182 96.6601Z" fill="#E24514"/>
<path d="M245.24 96.0091C244.661 95.1827 244.485 95.1827 244.259 95.1827C243.932 95.1827 243.656 95.4331 243.656 95.7336C243.656 96.0592 243.907 96.2345 244.259 96.2345C245.491 96.2345 246.396 97.186 246.422 98.2378C246.447 99.4648 245.466 100.391 244.209 100.391C243.681 100.391 242.901 100.341 241.996 98.8889L243.253 98.0875C243.731 98.8137 243.983 98.8638 244.209 98.8638C244.485 98.8638 244.812 98.6635 244.787 98.363C244.787 98.0875 244.511 97.762 244.209 97.762C242.776 97.762 242.021 96.8856 242.021 95.7086C242.021 94.5567 243.002 93.5801 244.209 93.5801C244.837 93.5801 245.592 93.6302 246.497 95.1327L245.24 96.0091Z" fill="#E24514"/>
<path d="M152.203 13.0718V47.5288H162.613V50.058H144.861V13.0718H152.203Z" fill="white"/>
<path d="M172.017 20.8848H165.555L159.847 40.1166C165.53 40.1166 171.69 40.1166 177.398 40.1166L172.017 20.8848ZM163.267 38.0883L166.485 26.9198L169.478 38.0883H163.267Z" fill="white"/>
<path d="M135.104 20.8848H128.642L122.934 40.1166C128.617 40.1166 134.778 40.1166 140.485 40.1166L135.104 20.8848ZM126.379 38.0883L129.598 26.9198L132.59 38.0883H126.379Z" fill="white"/>
<path d="M98.7949 50.3836V25.1919H110.06C115.843 25.1919 118.76 27.2453 118.76 31.3771C118.76 34.307 117 36.1851 113.505 37.0115C117.729 37.8378 119.816 40.0665 119.816 43.6975C119.816 48.1549 116.975 50.4086 111.317 50.4086H98.7949V50.3836ZM106.162 36.1601H108.426C110.513 36.1601 111.569 34.6325 111.569 31.5524C111.569 28.6977 110.462 27.2954 108.249 27.2954H106.162V36.1601ZM106.162 48.3052H108.249C110.99 48.3052 112.373 46.7526 112.373 43.6224C112.373 40.0415 110.965 38.2385 108.124 38.2385H106.162V48.3052Z" fill="white"/>
<path d="M201.538 25.1919V50.3836H195.93L185.369 34.4322V50.3836H182.905V25.1919H187.557L199.099 42.4204V25.1919H201.538Z" fill="white"/>
<path d="M222.735 40.2669L225.878 41.0682C225.928 41.7193 225.954 42.2702 225.954 42.721C225.954 45.175 225.073 47.1283 223.288 48.6057C221.503 50.0832 219.114 50.8094 216.122 50.8094C208.629 50.8094 204.857 46.6024 204.857 38.1885C204.857 33.5558 205.385 31.6276 208.151 28.4724C210.338 25.9933 213.18 24.7412 216.7 24.7412C222.182 24.7412 224.923 27.3706 224.923 32.6042L221.779 34.0566C221.83 33.3054 221.83 32.7545 221.83 32.3288C221.83 28.5976 220.346 26.7445 217.354 26.7445C214.186 26.7445 212.602 30.7011 212.602 38.5891C212.602 45.3754 214.362 48.756 217.907 48.756C219.366 48.756 220.572 48.18 221.553 47.0281C222.534 45.8762 223.012 44.4238 223.012 42.6959C222.961 42.1701 222.886 41.3687 222.735 40.2669Z" fill="white"/>
<path d="M244.888 25.1919V27.7211H235.81V35.3587H243.429V37.8879H235.81V47.8795H246.422V50.4086H228.468V25.1919H244.888Z" fill="white"/>
<path d="M107.747 64.6821V66.0594H102.768V70.617H106.992V71.9942H102.768V78.3548H98.7949V64.7072H107.747V64.6821Z" fill="white"/>
<path d="M114.687 64.4568C118.685 64.4568 120.671 66.8107 120.671 71.5185C120.671 76.2263 118.634 78.5802 114.586 78.5802C110.513 78.5802 108.501 76.1762 108.501 71.3682C108.501 66.7356 110.563 64.4568 114.687 64.4568ZM114.586 65.5336C113.832 65.5336 113.329 65.9342 113.077 66.7606C112.826 67.587 112.675 69.1646 112.675 71.4934C112.675 73.8223 112.801 75.3999 113.077 76.2263C113.329 77.0526 113.857 77.4533 114.586 77.4533C115.315 77.4533 115.843 77.0526 116.12 76.2263C116.396 75.3999 116.522 73.8223 116.522 71.4934C116.522 69.1646 116.396 67.587 116.12 66.7606C115.843 65.9593 115.34 65.5336 114.586 65.5336Z" fill="white"/>
<path d="M122.431 78.3297V64.6821H128.315C129.849 64.6821 131.081 65.0077 131.986 65.6588C132.917 66.3098 133.369 67.1612 133.369 68.238C133.369 69.8908 132.389 70.9675 130.427 71.4684C131.433 71.844 132.087 72.2446 132.389 72.6954C132.69 73.1461 132.892 73.9976 132.992 75.2997C133.118 76.8272 133.369 77.8539 133.772 78.3297H129.447C129.17 77.7037 129.044 76.9024 129.044 75.9508L129.019 75.1495L128.994 74.1228C128.994 72.5451 128.366 71.7689 127.083 71.7689H126.404V78.3297H122.431ZM126.429 70.642H127.234C128.743 70.642 129.497 69.8657 129.497 68.2881C129.497 66.7105 128.743 65.9342 127.234 65.9342H126.429V70.642Z" fill="white"/>
<path d="M146.269 68.8891V78.3798H140.712V59.3232H146.269V66.9859H150.795V59.3232H156.352V78.3798H150.795V68.8891H146.269Z" fill="white"/>
<path d="M172.017 59.3234V61.2265H165.153V66.9861H170.911V68.8892H165.153V76.4517H173.174V78.3549H159.596V59.2983L172.017 59.3234Z" fill="white"/>
<path d="M184.137 59.3232L189.468 78.3798H183.886L182.754 74.248H176.996L175.789 78.3798H173.627L179.284 59.3232H184.137ZM177.549 72.3198H182.251L179.988 63.8808L177.549 72.3198Z" fill="white"/>
<path d="M196.006 59.3232V76.4766H203.876V78.3798H190.449V59.3232H196.006Z" fill="white"/>
<path d="M210.59 59.3232V78.3798H205.033V59.3232H210.59Z" fill="white"/>
<path d="M227.915 59.3232V78.3798H223.665L215.669 66.3098V78.3798H213.808V59.3232H217.329L226.054 72.3448V59.3232H227.915Z" fill="white"/>
<path d="M238.576 68.0879H246.447V78.3799H244.687L244.083 77.0777C242.549 78.1796 240.915 78.7054 239.205 78.7054C236.389 78.7054 234.176 77.854 232.617 76.1762C231.058 74.4734 230.279 72.1195 230.279 69.0394C230.279 66.0595 231.108 63.6305 232.768 61.7774C234.427 59.9243 236.59 58.9978 239.28 58.9978C242.801 58.9978 244.963 60.8008 245.718 64.3817L243.102 65.5587V65.1079L243.052 64.0812C242.876 61.8275 241.845 60.7257 239.934 60.7257C238.526 60.7257 237.571 61.3267 237.068 62.5036C236.565 63.6806 236.288 65.9092 236.288 69.1646C236.288 72.1947 236.489 74.2731 236.917 75.3499C237.344 76.4517 238.124 76.9776 239.28 76.9776C240.663 76.9776 241.342 76.2263 241.342 74.6988V70.016H238.576V68.0879Z" fill="white"/>
<path d="M246.447 20.9097H98.7949V21.4355H246.447V20.9097Z" fill="white"/>
<path d="M246.447 55.0161H98.7949V55.542H246.447V55.0161Z" fill="white"/>
<path d="M246.472 84.5151H98.7949V85.041H246.472V84.5151Z" fill="white"/>
<path d="M246.673 108.154H98.9961V108.68H246.673V108.154Z" fill="white"/>
<path d="M25.5725 127.812H25.5474C25.1954 128.237 24.8182 128.663 24.4661 129.089C24.8936 129.014 25.3462 128.938 25.7737 128.863C25.6983 129.489 25.5977 130.09 25.5222 130.716C27.383 131.217 29.2437 131.743 31.1045 132.244C29.3946 131.543 27.6847 130.842 26 130.166C26.1257 129.89 26.2514 129.615 26.352 129.339C28.1373 128.989 29.9478 128.638 31.8085 128.212C33.2921 127.887 34.9013 127.511 37.4913 126.885C40.0812 126.259 43.5764 125.383 47.8259 124.256C47.4739 124.08 47.147 123.88 46.795 123.705C43.9787 124.481 41.0367 125.232 37.9691 125.908C34.3482 126.735 30.8781 127.386 27.559 127.962" fill="#E24514"/>
<path d="M54.5145 71.243C55.5455 75.3749 55.8975 79.682 56.4004 83.9391C56.5513 85.1661 56.2244 86.4432 56.0987 87.6953C56.4004 81.3598 55.118 75.2747 53.3327 68.814C52.2012 70.2163 51.3462 71.2931 50.4913 72.3699C50.5416 72.2697 50.5667 72.1696 50.617 72.0694C51.7234 70.6921 52.7292 69.2648 53.911 67.5119C54.4139 67.1362 55.0174 66.5853 55.7215 66.2097C54.6402 67.5119 53.9613 68.9893 54.5145 71.243Z" fill="#E24514"/>
<path d="M24.8685 53.6136C24.7679 54.1645 24.6673 54.6904 24.5667 55.2413C23.8124 57.47 23.058 59.7237 22.2785 61.9524C22.4545 68.3881 22.6306 74.8237 22.8066 81.2844C21.9768 86.468 21.1219 91.6766 20.2921 96.8602C19.94 103.797 19.5629 110.758 19.2108 117.695C21.3985 121.05 23.5609 124.431 25.7486 127.786C24.5164 129.414 23.2843 131.042 22.0522 132.67C23.9884 134.898 25.9497 137.102 27.8859 139.331C27.7099 139.581 27.5339 139.831 27.3327 140.107C25.2205 137.628 23.1083 135.124 20.9961 132.644C22.0522 131.192 23.1083 129.74 24.1644 128.262C21.8008 125.057 19.4371 121.877 17.0986 118.671C17.6518 111.209 18.205 103.747 18.7582 96.2843C19.6383 91.6266 20.3675 86.4179 20.7447 80.6835C21.2224 73.747 21.1219 67.4115 20.7447 61.9024C21.2224 60.2246 21.675 58.4967 22.1025 56.7438C22.6809 54.44 23.2089 52.1863 23.6867 49.9826C24.265 47.7289 24.8685 45.5002 25.4468 43.2465C27.7853 40.8675 30.1238 38.5136 32.4623 36.1347C35.6306 35.7841 38.7988 35.4586 41.9671 35.108C42.2186 32.0529 42.4449 29.0229 42.6963 25.9679C44.1296 24.9662 45.5377 23.9645 46.971 22.9629C46.0658 24.1649 45.1605 25.3418 44.2553 26.5438C44.5822 27.245 44.9091 27.9461 45.236 28.6473C50.0135 33.1297 54.766 37.6121 59.5435 42.0695C59.5435 42.4201 59.5184 42.7707 59.5184 43.1213C54.7408 38.9894 49.9633 34.8576 45.1857 30.7257C44.205 32.3785 43.1741 34.7574 43.9787 36.9611C44.3811 38.0378 44.8588 38.5136 45.4371 39.2148C46.3675 40.3166 46.6441 42.7957 43.5513 48.9559L43.7021 48.981C43.4255 45.1496 43.1741 41.3183 42.8975 37.4869C40.9613 41.5437 39.0251 45.6254 37.089 49.6821C38.8491 45.4251 40.6093 41.1931 42.3694 36.936C39.2263 37.1864 36.058 37.4619 32.9149 37.7123C30.9284 39.916 28.942 42.1196 26.9807 44.3233C26.3772 46.9276 25.7988 49.5068 25.1954 52.1111L24.8685 53.6136Z" fill="#E24514"/>
<path d="M36.0329 85.8922C36.913 82.9874 37.6422 80.308 38.5222 77.6536C39.6538 74.1728 39.3269 73.1712 36.234 71.6437C36.1837 71.6186 36.1586 71.5435 36.1083 71.4934C37.969 71.5685 39.6035 72.0193 39.8801 73.7471C40.8356 73.8974 41.766 73.7722 42.2186 74.1728C45.1354 76.702 47.9768 79.3564 50.8182 81.9607C50.7679 82.0108 50.6925 82.0609 50.6422 82.111C47.6248 79.4065 44.5822 76.702 41.766 74.1728C38.5725 76.4516 38.6228 79.6569 37.7176 82.3864C37.3153 83.5884 37.7679 85.0909 37.8182 86.4682C37.8433 86.944 37.9188 87.4699 37.7176 87.8705C36.4101 90.7253 36.5358 93.4798 38.1702 96.1843C39.2012 97.8871 40.1818 99.64 41.1876 101.368L41.2379 101.343C40.8859 101.368 40.5087 101.393 40.1567 101.443C40.2321 101.618 40.5841 102.069 40.6596 102.244C40.4836 102.495 40.0309 102.495 39.8549 102.745C39.6789 102.319 39.4275 101.693 39.1257 100.892C37.5416 96.8604 37.441 96.2845 36.9884 95.5833C36.6866 95.1075 36.2089 94.6067 35.4545 94.1309" fill="#E24514"/>
<path d="M72.4429 40.1665C72.971 39.8911 73.499 39.6156 74.4797 39.0897C72.3172 42.7708 70.1296 46.4519 67.9671 50.133C65.4275 47.6289 62.8627 45.1247 60.323 42.6206C59.795 42.4203 59.2921 42.245 58.764 42.0446C59.1915 42.6957 59.8704 43.6473 60.7756 44.699C61.6809 45.7508 62.4352 46.477 62.8124 46.8526C63.8685 47.8793 65.4023 49.4319 67.3888 51.6606C68.0928 51.6606 68.822 51.6606 69.5261 51.6606C70.5822 49.3067 71.6634 46.9528 72.6944 44.5738C73.7756 42.0196 73.9516 39.6657 75.8375 37.0864" fill="#E24514"/>
<path d="M27.5841 139.055C27.4836 139.406 27.383 139.731 27.2824 140.082C32.5126 140.232 37.7176 140.357 42.9478 140.508C45.3114 139.857 47.7756 139.206 50.3656 138.63C52.6035 138.104 54.7911 137.653 56.9033 137.252C61.354 137.277 65.7795 137.327 70.2302 137.352C74.6809 136.776 79.1567 136.201 83.6074 135.625C83.5319 134.923 83.4816 134.222 83.4062 133.546C79.031 134.297 74.6557 135.049 70.2805 135.8C65.9304 135.6 61.5803 135.399 57.2302 135.199C56.9033 135.524 56.5513 135.875 56.2244 136.201C51.7234 137.302 47.2476 138.404 42.7466 139.481C37.6673 139.331 32.6383 139.206 27.5841 139.055Z" fill="#E24514"/>
<path d="M54.6905 67.0109C54.5397 66.4851 54.3636 65.9592 54.2128 65.4333C56.8027 66.2096 59.4178 66.9608 62.0077 67.7371C63.0387 67.9375 64.0948 68.1378 65.1257 68.3381C68.8723 68.3381 70.5068 68.7388 71.2863 69.1144C71.4623 69.1895 72.0155 69.1395 72.5687 69.3147C72.7447 69.3648 73.3985 68.6136 73.4236 68.2129C73.499 66.5852 73.4236 64.9826 73.5996 63.3298C73.8259 65.1829 74.0522 67.0109 74.2785 68.9391C75.2843 68.6637 76.2147 68.4383 77.1451 68.1879C77.1954 68.3882 77.2457 68.6136 77.2959 68.8139C75.4855 69.4149 73.7002 69.9909 71.8898 70.5919C66.1567 69.4149 60.4236 68.2129 54.6905 67.0109Z" fill="#E24514"/>
<path d="M76.0638 37.2366C76.8685 39.6906 77.6228 42.1697 78.4777 44.5988C78.8549 45.6755 79.3327 46.6271 79.8859 47.8041C80.9671 50.1329 82.8279 53.8641 85.7195 58.9225C85.0909 57.6203 84.236 55.8173 83.2553 53.6638C81.9478 50.8341 81.3191 49.4067 80.9671 48.5804C79.3578 44.4736 79.1315 43.3216 77.8743 40.1664C77.472 39.1397 76.6673 38.2382 76.0638 37.2867C76.0387 37.2867 76.0387 37.2616 76.0638 37.2366Z" fill="#E24514"/>
<path d="M65.9052 123.179C66.6847 123.279 67.4642 123.404 68.2437 123.504C68.2437 123.504 69.5764 123.705 70.9342 124.331C74.53 126.009 78.1257 127.686 81.7215 129.389C81.9226 130.942 82.1238 132.494 82.325 134.047C82.677 133.872 83.029 133.721 83.381 133.546C83.1547 131.893 82.9536 130.241 82.7273 128.588C78.528 126.885 75.7872 125.633 74.0019 124.807C73.323 124.481 71.1102 124.03 68.646 122.528C67.9168 122.102 67.3636 121.676 66.9865 121.401C66.6344 122.002 66.2572 122.603 65.9052 123.179Z" fill="#E24514"/>
<path d="M47.8511 124.256C47.1973 121.852 46.4681 119.398 45.6886 116.919C44.0542 111.635 42.2689 106.677 40.4333 102.044C40.2321 102.269 40.0058 102.495 39.8046 102.72C42.1431 109.732 44.4816 116.718 46.8201 123.73C47.147 123.905 47.499 124.08 47.8511 124.256Z" fill="#E24514"/>
<path d="M69.7776 51.1346C68.7969 53.4134 69.501 55.3667 70.5822 57.5202C71.9652 60.2497 72.7447 63.2798 73.8008 66.1595C73.7253 66.1846 73.6248 66.2096 73.5493 66.2346C71.6634 61.7272 69.7776 57.2197 67.9168 52.7123L66.5841 50.0579L69.7776 51.1346Z" fill="#E24514"/>
<path d="M71.6634 15.1501C62.3095 13.0967 53.6344 12.8463 51.4971 14.6993C52.2012 14.7494 52.8298 14.9998 53.2573 14.7995C57.0542 13.1468 60.7756 14.2987 64.5725 14.8245C66.911 15.1501 69.2998 15.0249 71.6634 15.1C71.6383 15.1 71.6634 15.1501 71.6634 15.1501Z" fill="#E24514"/>
<path d="M74.5803 20.7594C74.0019 20.5841 73.7002 20.484 73.675 20.484C74.6054 25.0916 75.5609 29.7744 76.4913 34.4822C76.5919 34.4571 76.6925 34.4321 76.7679 34.4321C75.913 28.7226 75.058 23.0132 74.2031 17.3037C74.1528 17.3037 74.1025 17.3037 74.0522 17.3288C74.2031 18.3805 74.3791 19.4573 74.5803 20.7594Z" fill="#E24514"/>
<path d="M83.8085 68.4384C83.8588 68.3883 83.8839 68.3382 83.9091 68.3382C86.0967 66.4351 86.1218 66.41 84.5126 64.1062C84.1354 63.5804 83.7582 63.0795 83.4816 62.4284C84.06 62.9794 84.6383 63.5303 85.4681 64.3066C85.4429 62.3283 85.4429 60.6255 85.4178 58.8976C85.6441 58.8976 85.8704 58.8976 86.0967 58.8726C86.1219 59.8993 86.1973 60.926 86.1721 61.9527C86.1721 62.779 85.8201 63.7056 86.0464 64.4568C86.4739 65.8842 86.1973 66.1346 86.0464 66.6354C85.8453 67.2614 85.2669 68.0878 83.5319 68.7639C83.6073 68.6638 83.6828 68.5636 83.8085 68.4384Z" fill="#E24514"/>
<path d="M44.1799 59.2231C44.8588 59.7741 45.5629 60.2999 46.1915 60.9009C46.3675 61.0762 46.2921 61.527 46.3172 61.8525C48.3791 63.0795 50.4662 64.2815 52.5281 65.5085C49.9381 63.2047 47.6751 60.4251 44.1799 59.2231Z" fill="#E24514"/>
<path d="M81.8472 84.8406C81.7718 80.9341 81.7215 77.0276 81.646 73.1212C81.3946 73.021 81.118 72.9459 80.8665 72.8457C80.942 76.7522 80.9923 80.6586 81.0677 84.5651C80.6905 85.3414 80.3385 86.1177 79.9613 86.8689C80.5899 86.1928 81.2186 85.5167 81.8472 84.8406Z" fill="#E24514"/>
<path d="M36.0329 62.4033C36.2843 65.4584 36.5609 68.5134 36.8124 71.5685C36.8375 68.2881 36.8627 65.0327 36.8878 61.7522C36.737 61.7272 36.5609 61.7021 36.4101 61.7021C36.2843 61.9526 36.1838 62.1779 36.0329 62.4033Z" fill="#E24514"/>
<path d="M45.8646 59.9993C45.3617 59.7238 44.8085 59.1479 44.3559 59.223C42.4952 59.5986 40.6596 60.1746 38.8491 60.7756C41.2128 60.5252 43.5261 60.2497 45.8646 59.9993Z" fill="#E24514"/>
<path d="M65.6035 72.8958C64.6228 74.9742 63.617 77.0276 62.5861 79.2313C62.8124 79.3064 63.3404 79.4316 63.8685 79.5818C62.5609 80.909 59.3172 79.9074 59.619 83.1377H59.7195C57.6074 80.6336 60.3482 79.5568 61.3288 78.1044C62.5861 76.2513 64.1702 74.6236 65.6035 72.8958Z" fill="#E24514"/>
<path d="M71.1354 113.438C69.677 116.267 68.1934 119.072 66.735 121.902C66.9865 121.902 67.2631 121.927 67.5145 121.927C68.6209 119.873 69.7273 117.82 70.8085 115.767C71.8143 113.889 72.8201 112.01 73.8259 110.132L71.1354 113.438Z" fill="#E24514"/>
<path d="M70.0542 109.156C70.0793 109.181 70.1045 109.231 70.1045 109.256L70.0542 109.156Z" fill="#E24514"/>
<path d="M78.8047 90.9005C77.1702 95.1074 75.5358 99.3144 73.9014 103.496C73.8511 104.974 73.8008 106.451 73.7505 107.929C73.499 108.279 73.2476 108.63 72.9961 108.98C73.5242 108.705 74.0271 108.429 74.5551 108.154C74.6809 106.601 74.8317 105.024 74.9574 103.471C77.0948 98.0373 79.207 92.6033 81.3443 87.1943C80.5397 88.1209 79.7602 89.0224 78.9555 89.9489L78.8047 90.9005Z" fill="#E24514"/>
<path d="M75.8878 69.3648C76.8182 69.8656 77.7486 70.3664 78.6789 70.8672C79.6596 71.4182 80.6403 71.9941 81.7215 72.6202C82.7776 70.8923 83.8588 69.1394 84.9149 67.4115C85.1915 66.9357 85.5435 66.3598 85.5938 66.3848C85.6441 66.4099 85.1412 67.3114 85.1161 67.5618C84.9401 69.1394 83.8588 70.2162 82.9536 71.3681C82.5261 71.919 82.0735 72.4699 81.47 73.2212C79.6847 71.9691 77.7737 70.6669 75.8878 69.3648Z" fill="#E24514"/>
<path d="M56.7524 91.4262C56.4758 93.3544 56.1992 95.2826 55.9226 97.2108C55.7969 98.1624 55.6712 99.114 55.5455 100.066C55.5706 98.4879 55.3694 96.8603 55.6963 95.3327C56.4004 92.2777 56.1992 89.2226 56.1741 86.1425C56.1741 86.0173 56.1992 85.8921 56.1992 85.7168C56.9284 86.8687 57.1799 89.7485 56.7524 91.4262Z" fill="#E24514"/>
<path d="M59.0909 95.9839C59.1663 94.7569 59.3172 93.5048 59.3172 92.2778C59.3424 89.0975 59.3172 85.9423 59.3172 82.762C59.3172 82.7119 59.3926 82.6869 59.4932 82.5367C59.6692 83.2128 59.8453 83.8138 60.0213 84.4148C59.8704 83.338 59.7195 82.2612 59.5687 81.1093C59.795 81.2596 59.9961 81.3847 60.1973 81.535C60.2224 81.51 60.2727 81.4849 60.2979 81.4599C60.0213 81.0843 59.7447 80.7086 59.4932 80.333L59.5184 80.3581C59.4178 80.4833 59.2166 80.6085 59.2166 80.7337C59.1412 85.8171 59.1161 90.9005 59.0909 95.9839Z" fill="#E24514"/>
<path d="M54.0368 111.134C53.6093 112.311 53.207 113.513 52.7544 114.69C52.528 115.266 52.352 115.892 51.9749 116.343C50.441 118.096 49.6112 120.199 48.7563 122.303C48.6809 122.503 48.5048 122.678 48.3791 122.853C48.7814 122.202 49.1586 121.551 49.5861 120.925C50.441 119.623 51.3211 118.321 52.176 117.019C52.3269 116.793 52.4526 116.518 52.5281 116.242C53.0058 114.84 53.4836 113.438 53.9362 112.061C54.3385 112.036 54.6654 112.01 54.9671 111.985C54.3888 112.01 54.0871 111.71 54.0368 111.134Z" fill="#E24514"/>
<path d="M47.8259 124.281C48.3791 123.154 48.882 121.952 49.5358 120.875C49.9129 120.249 50.5416 119.748 51.1199 119.273C51.2959 119.147 51.6983 119.323 52.0251 119.348C51.8491 119.197 51.6983 118.922 51.5222 118.897C51.1451 118.872 50.7679 118.972 50.2398 119.047C50.3153 117.97 50.3656 116.969 50.441 115.942C50.4158 115.942 50.3656 115.917 50.3404 115.917C50.265 116.418 50.1644 116.919 50.1644 117.394C50.1393 118.396 49.9632 119.298 49.4855 120.224C48.7814 121.526 48.354 122.929 47.8259 124.281Z" fill="#E24514"/>
<path d="M54.6905 97.8621C55.0677 101.618 55.4449 105.375 55.8472 109.106C55.9478 108.93 56.0232 108.755 56.1238 108.605C55.8472 104.824 55.7969 101.919 55.822 100.542C55.8472 98.989 55.9478 97.186 55.9478 97.186C55.9729 96.9105 55.9729 96.6852 55.9729 96.5349C55.6963 97.211 55.3946 97.8871 55.0677 98.6885C54.942 98.413 54.8162 98.1376 54.6905 97.8621Z" fill="#E24514"/>
<path d="M50.7679 17.6793H50.7427C51.0193 17.4539 51.3211 17.2285 51.5977 17.0032C52.4526 16.8279 53.3327 16.6526 54.1876 16.4773C52.7543 16.4272 51.2959 16.3521 49.8627 16.302C49.4352 17.1284 48.9826 17.9798 48.5048 18.8312C48.53 18.9564 48.5551 19.0566 48.5803 19.1818C46.5184 22.2368 42.8975 28.2217 43.1741 28.1466C47.5996 21.5106 49.2843 18.706 49.3346 18.2052C49.3346 18.1801 49.3095 17.9047 49.4855 17.6542C49.6615 17.3537 49.913 17.0783 50.1393 16.7778C50.3153 17.0532 50.5416 17.3537 50.7679 17.6793Z" fill="#E24514"/>
<path d="M54.0116 112.035C53.911 111.785 53.8104 111.535 53.7602 111.434C54.1625 111.009 54.6905 110.533 55.0677 109.982C55.7718 108.88 56.4004 107.703 57.0542 106.576C56.5764 107.703 56.0986 108.83 55.5957 109.982C55.5706 109.982 55.5455 109.957 55.5203 109.957C55.7969 109.581 56.0735 109.206 56.4507 108.655C56.1238 110.283 55.0928 111.184 54.0116 112.035Z" fill="#E24514"/>
<path d="M59.0658 95.5582C58.94 96.084 58.8143 96.6099 58.6634 97.1358C58.6132 97.1358 58.5377 97.1358 58.4874 97.1358C58.2863 96.1592 58.1102 95.2076 57.9091 94.231C58.0851 95.3578 58.3114 96.4847 58.4371 97.6116C58.5126 98.1875 58.412 98.8136 58.3869 99.3895C58.3366 100.341 58.2611 101.293 58.1857 102.269C58.2611 102.169 58.3869 102.069 58.3869 101.944C58.6132 99.8402 58.8395 97.6867 59.0658 95.5582Z" fill="#E24514"/>
<path d="M56.5513 107.778C56.7021 107.177 56.8781 106.576 57.029 105.95C57.1045 105.625 57.1547 105.274 57.205 104.949C57.2553 104.798 57.2302 104.573 57.3308 104.498C58.2611 103.672 58.0097 102.52 58.1857 101.493C58.8395 103.922 57.1799 105.725 56.5513 107.778Z" fill="#E24514"/>
<path d="M62.1083 130.14C63.5668 127.837 65.0503 125.508 66.5087 123.204C66.4082 123.104 66.2824 123.029 66.1818 122.928C65 124.706 63.8182 126.509 62.5861 128.337C61.4294 128.162 60.2225 127.962 58.9903 127.761C58.9401 127.937 58.9149 128.087 58.8646 128.262C59.6693 128.438 60.4991 128.488 61.2283 128.838C61.6306 129.014 61.7815 129.715 62.0581 130.165L62.1083 130.14Z" fill="#E24514"/>
<path d="M73.0213 15.8263C72.8956 15.7261 72.7698 15.651 72.4681 15.4256C73.0464 15.4757 73.4487 15.5008 73.8259 15.5508C73.8259 15.5008 73.8511 15.4256 73.8511 15.3755C72.7698 15.2253 71.6886 15.0751 70.4565 14.9248C71.3868 15.3505 72.1412 15.7011 72.9207 16.0517C72.9458 15.9765 72.971 15.9014 73.0213 15.8263Z" fill="#E24514"/>
<path d="M62.3849 129.615C62.1335 129.615 61.7814 129.464 61.6557 129.59C60.0464 131.618 58.4874 133.696 57.1799 136.1C58.9149 133.922 60.6248 131.743 62.3598 129.565C62.3598 129.59 62.3849 129.615 62.3849 129.615Z" fill="#E24514"/>
<path d="M108.476 137.052C108.124 137.052 107.822 137.177 107.571 137.403C107.319 137.653 107.193 137.979 107.193 138.329C107.193 138.68 107.319 139.005 107.571 139.231C107.822 139.481 108.124 139.581 108.476 139.581C108.853 139.581 109.18 139.456 109.431 139.231C109.683 138.98 109.809 138.68 109.809 138.329C109.809 137.954 109.683 137.653 109.431 137.403C109.18 137.152 108.853 137.052 108.476 137.052Z" fill="#182948"/>
<path d="M104.956 137.052C104.604 137.052 104.302 137.177 104.05 137.403C103.799 137.653 103.673 137.979 103.673 138.329C103.673 138.68 103.799 139.005 104.05 139.231C104.302 139.481 104.604 139.581 104.956 139.581C105.333 139.581 105.66 139.456 105.911 139.231C106.162 138.98 106.288 138.68 106.288 138.329C106.288 137.954 106.162 137.653 105.911 137.403C105.66 137.152 105.333 137.052 104.956 137.052Z" fill="#182948"/>
<path d="M141.567 136.852C141.215 136.852 140.913 136.977 140.662 137.202C140.41 137.453 140.284 137.778 140.284 138.129C140.284 138.479 140.41 138.805 140.662 139.03C140.913 139.281 141.215 139.381 141.567 139.381C141.944 139.381 142.271 139.256 142.522 139.03C142.774 138.78 142.899 138.479 142.899 138.129C142.899 137.753 142.774 137.453 142.522 137.202C142.271 136.977 141.944 136.852 141.567 136.852Z" fill="#182948"/>
<path d="M138.046 136.852C137.694 136.852 137.393 136.977 137.141 137.202C136.89 137.453 136.764 137.778 136.764 138.129C136.764 138.479 136.89 138.805 137.141 139.03C137.393 139.281 137.694 139.381 138.046 139.381C138.424 139.381 138.75 139.256 139.002 139.03C139.253 138.78 139.379 138.479 139.379 138.129C139.379 137.753 139.253 137.453 139.002 137.202C138.75 136.977 138.424 136.852 138.046 136.852Z" fill="#182948"/>
<path d="M141.215 132.645H136.211H135.985H135.054V127.286C135.054 125.833 134.652 124.732 133.822 123.98C133.168 123.379 132.414 123.079 131.559 123.079H124.87L124.946 122.853L122.959 122.077L121.702 125.232H131.534C131.986 125.333 132.263 125.458 132.364 125.558C132.716 125.883 132.892 126.459 132.892 127.311V132.67H120.646H120.42H117.503V122.077H114.511C111.795 122.077 109.909 122.528 108.878 123.429C107.772 124.406 107.219 125.658 107.219 127.186V128.989H111.166V132.67H103.07C103.07 132.67 103.045 132.67 103.019 132.67C102.969 132.67 102.868 132.645 102.768 132.62C102.516 132.57 102.315 132.469 102.164 132.319C101.662 131.868 101.41 131.017 101.41 129.765V123.379L98.2669 124.481L98.971 126.509L99.2727 126.409V129.79C99.2727 131.668 99.7756 133.045 100.756 133.922C101.41 134.523 102.19 134.823 103.095 134.823H113.379V126.96H109.381C109.431 126.084 109.783 125.383 110.412 124.882C111.041 124.381 112.7 124.131 115.366 124.131V134.823H120.445H120.671H132.892V135.174L135.054 137.327V134.823H135.959H136.186H143.352V124.707L143.855 124.807L144.282 122.703L141.19 122.102V132.645H141.215Z" fill="#182948"/>
<path d="M167.391 128.413C167.391 130.141 167.039 131.343 166.31 132.044C165.882 132.444 165.354 132.645 164.675 132.645H164.222H163.996H161.557V117.97L159.395 116.167V132.645H156.88H156.704H155.824V122.728L153.662 123.755L150.971 124.306C149.714 124.556 148.658 125.082 147.778 125.959C146.671 127.061 146.118 128.488 146.118 130.241V135.875L148.28 134.798H153.662V136.752C153.662 137.403 153.46 137.954 153.058 138.379C152.605 138.83 151.927 139.08 150.971 139.08H148.633V141.234H150.971C152.555 141.234 153.787 140.758 154.667 139.832C155.447 139.005 155.849 137.979 155.849 136.802C155.849 136.727 155.849 136.626 155.849 136.526V134.773H156.729H156.956H163.996H164.222H164.6C165.882 134.773 166.938 134.398 167.768 133.621C168.95 132.494 169.553 130.767 169.553 128.388V117.945L167.391 115.992V128.413ZM153.687 132.645H148.306V130.241C148.306 128.989 148.733 128.012 149.563 127.311C149.94 126.985 150.544 126.685 151.323 126.434L153.687 125.959V132.645Z" fill="#182948"/>
<path d="M171.967 134.798H174.13V118.997L174.658 119.197L175.387 117.169L171.967 115.917V134.798Z" fill="#182948"/>
<path d="M190.222 136.877C189.87 136.877 189.569 137.002 189.317 137.227C189.066 137.478 188.94 137.803 188.94 138.154C188.94 138.504 189.066 138.83 189.317 139.055C189.569 139.306 189.87 139.406 190.222 139.406C190.6 139.406 190.927 139.281 191.178 139.055C191.429 138.805 191.555 138.504 191.555 138.154C191.555 137.778 191.429 137.478 191.178 137.227C190.927 137.002 190.6 136.877 190.222 136.877Z" fill="#182948"/>
<path d="M231.184 120.274C231.561 120.274 231.888 120.149 232.139 119.924C232.391 119.673 232.516 119.373 232.516 119.022C232.516 118.647 232.391 118.346 232.139 118.096C231.888 117.845 231.561 117.745 231.184 117.745C230.832 117.745 230.53 117.87 230.279 118.096C230.027 118.346 229.901 118.672 229.901 119.022C229.901 119.373 230.027 119.698 230.279 119.924C230.53 120.149 230.832 120.274 231.184 120.274Z" fill="#182948"/>
<path d="M227.663 120.274C228.041 120.274 228.368 120.149 228.619 119.924C228.87 119.673 228.996 119.373 228.996 119.022C228.996 118.647 228.87 118.346 228.619 118.096C228.368 117.845 228.041 117.745 227.663 117.745C227.311 117.745 227.01 117.87 226.758 118.096C226.507 118.346 226.381 118.672 226.381 119.022C226.381 119.373 226.507 119.698 226.758 119.924C227.01 120.149 227.286 120.274 227.663 120.274Z" fill="#182948"/>
<path d="M237.923 128.413C237.923 130.141 237.571 131.343 236.841 132.044C236.414 132.444 235.886 132.645 235.207 132.645H234.754H234.528H232.391V123.279L230.228 122.052V132.645H225.677H225.576H224.621V128.588C224.621 126.885 224.219 125.658 223.389 124.932C222.71 124.331 221.93 124.056 221.05 124.056H212.25L211.344 125.308V122.303H209.182V132.67H207.975H207.774H205.335V117.996L203.172 116.193V132.67H200.758H200.507H198.747V124.682L199.25 124.782L199.677 122.678L196.584 122.077V132.67H186.4C185.948 132.67 185.52 132.469 185.093 132.069C184.364 131.368 184.012 130.166 184.012 128.438V124.081H181.849V128.438C181.849 130.817 182.453 132.545 183.634 133.671C184.464 134.448 185.395 134.823 186.451 134.823H200.456H200.708H207.723H207.95H222.509V135.174L224.571 137.328V134.823H225.526H225.652H234.478H234.704H235.081C236.364 134.823 237.42 134.448 238.25 133.671C239.431 132.545 240.035 130.817 240.035 128.438V117.945L237.872 115.992V128.413H237.923ZM222.559 132.645H211.344V126.184H221.402C221.729 126.209 221.981 126.309 222.157 126.51C222.433 126.76 222.559 127.436 222.559 128.613V132.645Z" fill="#182948"/>
<path d="M242.499 115.917V134.798H244.662V118.997L245.19 119.197L245.919 117.169L242.499 115.917Z" fill="#182948"/>
</svg>
