<svg width="24" height="25" viewBox="0 0 24 25" fill="none" xmlns="http://www.w3.org/2000/svg">
<g id="new-twitter">
<path id="Vector" d="M2.3569 3.65467C2.52359 3.32867 2.85886 3.12354 3.225 3.12354H8.1C8.41308 3.12354 8.70711 3.27388 8.89041 3.52769L13.5354 9.95924L20.0856 3.40911C20.4663 3.02835 21.0837 3.02835 21.4644 3.40911C21.8452 3.78987 21.8452 4.40721 21.4644 4.78797L14.6919 11.5605L21.5654 21.0776C21.7798 21.3745 21.8098 21.7664 21.6431 22.0924C21.4764 22.4184 21.1411 22.6235 20.775 22.6235H15.9C15.5869 22.6235 15.2929 22.4732 15.1096 22.2194L10.4646 15.7878L3.91443 22.3379C3.53367 22.7187 2.91634 22.7187 2.53557 22.3379C2.15481 21.9572 2.15481 21.3398 2.53557 20.9591L9.30811 14.1865L2.43459 4.66939C2.22022 4.37257 2.19021 3.98067 2.3569 3.65467Z" fill="#263653"/>
</g>
</svg>
