<svg width="24" height="25" viewBox="0 0 24 25" fill="none" xmlns="http://www.w3.org/2000/svg">
<g id="youtube">
<path id="Vector" fill-rule="evenodd" clip-rule="evenodd" d="M6.69674 4.14528C8.35573 3.8071 10.1414 3.62354 12 3.62354C13.8586 3.62354 15.6443 3.8071 17.3032 4.14528L17.4305 4.1712C19.3251 4.55683 20.5875 4.81378 21.6754 6.21246C22.7516 7.59612 22.751 9.20074 22.75 11.6859V14.0611C22.751 16.5463 22.7516 18.1509 21.6754 19.5346C20.5875 20.9333 19.3251 21.1902 17.4305 21.5758L17.3032 21.6018C15.6443 21.9399 13.8586 22.1235 12 22.1235C10.1414 22.1235 8.35573 21.9399 6.69674 21.6018L6.56946 21.5758C4.67483 21.1902 3.41243 20.9333 2.32458 19.5346C1.2484 18.1509 1.249 16.5463 1.24993 14.0611V11.6859C1.249 9.20074 1.2484 7.59612 2.32458 6.21246C3.41243 4.81378 4.67483 4.55683 6.56946 4.1712L6.69674 4.14528ZM11.2945 9.12578C11.813 9.3434 12.4429 9.69517 13.213 10.1253C13.3144 10.1819 13.4163 10.2381 13.5183 10.2944C14.0217 10.5723 14.528 10.8518 14.9949 11.1875C15.4145 11.4892 15.8126 11.8631 15.9444 12.4084C16.0184 12.7145 16.0184 13.0325 15.9444 13.3386C15.8126 13.8839 15.4145 14.2578 14.9949 14.5595C14.528 14.8952 14.0216 15.1748 13.5182 15.4527C13.4162 15.509 13.3144 15.5652 13.213 15.6218C12.4429 16.0519 11.8131 16.4036 11.2945 16.6213C10.4515 16.975 9.55759 17.0037 8.82288 16.4017C8.36304 16.0249 8.20049 15.4854 8.12917 14.9418C7.95682 13.6279 7.95674 12.1197 8.12917 10.8053C8.20049 10.2616 8.36304 9.72212 8.82288 9.34535C9.55759 8.74337 10.4515 8.77199 11.2945 9.12578Z" fill="#263653"/>
</g>
</svg>
